<svg version="1.1" id="Layer_1" xmlns="http://www.w3.org/2000/svg" xmlns:xlink="http://www.w3.org/1999/xlink" x="0px" y="0px"
	 width="100%" viewBox="0 0 352 352" enable-background="new 0 0 352 352" xml:space="preserve">
<path fill="#000000" opacity="1.000000" stroke="none" 
	d="
M273.478149,188.549820 
	C265.235229,194.434052 255.992065,196.656097 246.637543,198.275436 
	C237.149567,199.917862 227.589294,201.248779 218.009140,202.193558 
	C214.755280,202.514465 211.919617,203.752579 208.915054,204.556717 
	C193.949661,208.562027 178.188492,207.361542 163.282150,212.139999 
	C149.467178,216.568588 135.637085,220.775848 122.811844,227.704193 
	C119.430161,229.531021 116.115692,231.459030 113.434196,234.271378 
	C109.344513,238.560623 109.222641,242.215927 113.252953,246.503967 
	C119.344017,252.984543 127.342178,255.882919 135.749664,257.548431 
	C157.392868,261.835907 179.363068,262.253876 201.330170,262.973328 
	C217.815033,263.513275 234.293106,263.904541 250.775208,263.611908 
	C271.070679,263.251587 291.344147,262.285797 311.545319,260.147552 
	C313.323364,259.959351 315.403870,259.293762 316.706146,260.980194 
	C318.213257,262.931946 316.796997,264.882904 315.836639,266.533997 
	C308.372742,279.366547 305.994049,293.595337 304.342102,308.016235 
	C304.003265,310.974487 303.301208,313.145325 299.756622,313.323822 
	C280.978271,314.269501 262.199585,315.966888 243.395020,315.110504 
	C217.971619,313.952667 192.537018,313.059784 167.173141,310.546570 
	C141.333145,307.986206 115.591446,305.094635 90.459045,298.313629 
	C79.503464,295.357666 68.643204,291.944305 59.406738,285.018097 
	C52.961765,280.185150 47.042358,274.790100 45.703636,266.160004 
	C43.644997,252.888901 49.318226,242.467834 58.209557,233.495590 
	C68.538383,223.072754 81.884506,217.535797 95.099579,212.011230 
	C107.231087,206.939651 119.590775,202.415527 131.827484,197.593277 
	C137.516907,195.351196 137.756866,194.398392 133.269653,190.456436 
	C124.556206,182.801743 116.966362,174.273529 111.627121,163.889008 
	C110.171829,161.058533 107.927925,160.236664 104.699005,160.130539 
	C94.213593,159.785919 83.843369,158.641769 73.942497,154.634384 
	C57.892963,148.138351 51.203995,135.234833 48.565609,119.129974 
	C47.414513,112.103615 48.020424,105.238258 48.639099,98.281372 
	C48.963966,94.628296 50.799583,92.105003 53.509766,89.953476 
	C66.040710,80.005577 80.394310,74.100662 95.953682,70.963379 
	C100.589813,70.028587 102.282379,71.992348 100.536148,76.631775 
	C97.928665,83.559402 96.309723,90.678062 95.829903,97.998062 
	C95.360916,105.152832 96.598900,112.004631 101.317024,118.346901 
	C103.906677,114.407265 103.564903,110.421028 104.388824,106.772987 
	C113.689781,65.591682 152.099808,38.433647 194.011246,43.484848 
	C226.336395,47.380699 248.701126,64.762070 261.515594,94.281204 
	C267.093170,107.129509 268.554779,120.976181 266.686401,134.924316 
	C266.122009,139.137817 267.116058,141.648590 270.568726,144.143600 
	C282.243408,152.580185 286.458649,163.110367 283.224945,174.668182 
	C281.652344,180.289017 278.705994,185.014359 273.478149,188.549820 
M144.615891,136.838181 
	C150.112198,134.055817 155.926666,133.062927 162.044296,133.686401 
	C166.941193,134.185455 170.157166,137.207581 170.272598,142.070740 
	C170.597733,155.766617 159.941727,161.488602 150.991226,168.501099 
	C150.264664,169.070328 149.858948,169.336426 149.086777,169.232162 
	C147.466675,169.013382 145.968109,169.222900 145.472885,171.027481 
	C145.017426,172.687134 146.182632,173.877472 147.179672,174.977966 
	C150.441513,178.578293 154.361633,181.294189 158.565781,183.720856 
	C161.315460,185.307999 169.506668,182.577133 169.576782,179.428406 
	C169.657898,175.784714 170.833603,172.358688 170.745956,168.654083 
	C170.580276,161.651367 172.933151,155.281403 177.563919,149.870514 
	C181.991226,144.697372 188.068756,144.308304 192.679611,149.290939 
	C195.136246,151.945663 196.986404,155.075928 198.458817,158.528946 
	C200.429428,163.150391 199.916031,168.012680 200.889236,172.692657 
	C201.266418,174.506500 202.034271,176.390457 204.265015,176.501480 
	C206.500793,176.612762 206.822769,174.759659 207.069275,173.069550 
	C207.309921,171.419693 208.312149,170.443954 209.692642,169.657944 
	C211.833725,168.438843 213.919571,167.122726 216.403305,165.621399 
	C214.753769,164.216766 213.574341,163.100647 212.283813,162.132629 
	C206.303635,157.646912 202.656815,151.703781 201.015594,144.452255 
	C199.544174,137.950928 203.010849,133.090363 209.655334,132.775833 
	C221.319321,132.223694 230.942383,135.664383 236.611786,146.818954 
	C237.858749,149.272354 240.201050,150.904999 242.686554,148.532089 
	C246.610519,144.785889 250.149658,140.337204 248.428452,134.510483 
	C246.665436,128.542130 246.882919,122.714226 247.561523,116.718330 
	C248.230530,110.807228 246.737091,105.292107 244.310318,99.516754 
	C241.742981,102.134590 241.689865,104.914917 241.463440,107.470596 
	C240.952957,113.232430 237.716675,117.044296 232.973907,119.615074 
	C225.786057,123.511162 218.164337,124.412636 210.280579,121.843140 
	C205.426483,120.261070 202.976791,115.840263 204.271942,110.807747 
	C206.955170,100.381592 220.505920,87.394333 233.081299,92.371490 
	C234.014603,92.740868 235.051865,92.805458 235.963867,91.720009 
	C236.840988,86.531761 235.121597,82.085617 231.387894,78.305389 
	C218.708160,65.467659 203.121262,58.853401 185.306717,58.444748 
	C155.395706,57.758617 128.380432,76.508774 120.301399,107.296341 
	C116.868729,120.377563 116.079056,133.000763 120.441109,145.843369 
	C121.745552,149.683868 124.701096,152.320984 127.819214,154.291687 
	C130.250397,155.828201 133.494827,155.644974 134.036804,151.401993 
	C134.863113,144.932877 138.512527,140.446991 144.615891,136.838181 
M92.065521,283.459503 
	C94.582268,284.056000 96.981316,284.037079 99.202454,282.415375 
	C105.510284,277.809967 111.796921,273.173187 118.643005,269.362183 
	C120.040741,268.584106 121.442276,266.871613 119.770775,265.846497 
	C115.075615,262.967010 110.668465,258.495636 104.717171,259.218506 
	C92.855568,260.659180 81.148338,263.138489 69.562950,266.119629 
	C67.647736,266.612457 65.633156,266.932312 64.573502,269.818146 
	C72.547569,276.017761 81.583511,280.248993 92.065521,283.459503 
M273.532288,298.694611 
	C277.846222,298.694641 282.163544,298.589417 286.472931,298.729675 
	C289.631195,298.832520 291.349548,297.487305 292.257263,294.491089 
	C293.602112,290.051880 295.060089,285.633270 296.755280,281.317993 
	C298.241486,277.534668 296.529785,276.416016 293.194397,276.410553 
	C285.064484,276.397278 276.934357,276.483917 268.804565,276.455750 
	C266.218079,276.446777 264.866394,277.648499 264.255371,280.095703 
	C263.091797,284.755920 261.769287,289.376312 260.586243,294.031891 
	C259.843781,296.953735 261.103424,298.521332 264.089752,298.607178 
	C266.908447,298.688202 269.730164,298.663910 273.532288,298.694611 
M208.726120,290.296204 
	C209.750366,287.142670 210.617813,283.926880 211.838638,280.851379 
	C213.354034,277.033844 211.721085,275.554199 208.155212,275.362030 
	C200.866943,274.969360 193.571472,274.705658 186.285416,274.278717 
	C183.663452,274.125031 181.747208,274.920380 180.657867,277.377289 
	C178.776154,281.621307 176.869263,285.854492 175.031815,290.117645 
	C173.437241,293.817230 175.103485,295.423676 178.741760,295.602692 
	C186.193481,295.969391 193.647217,296.295074 201.098984,296.661041 
	C205.152100,296.860077 207.812469,295.240387 208.726120,290.296204 
M155.991806,287.578278 
	C158.629669,283.046478 161.962387,278.900482 164.209030,273.224548 
	C155.534286,272.258270 147.359619,271.295471 139.170151,270.481873 
	C137.627106,270.328522 136.349106,271.448273 135.294937,272.515930 
	C131.912827,275.941376 128.415146,279.276306 125.294815,282.930298 
	C121.882484,286.926300 122.827469,289.625610 128.007202,290.454865 
	C134.382858,291.475586 140.853195,291.889954 147.255081,292.767334 
	C151.290665,293.320404 154.022354,291.920105 155.991806,287.578278 
M227.887390,276.144012 
	C224.688110,275.729584 222.931061,277.174957 222.164169,280.270599 
	C221.286713,283.812653 220.175186,287.296387 219.181030,290.809906 
	C217.781128,295.757385 218.677628,297.314606 223.766403,297.530518 
	C230.571152,297.819214 237.393417,297.671112 244.206390,297.802032 
	C246.874786,297.853302 248.113525,296.546173 248.605316,294.072357 
	C249.478271,289.681213 250.378693,285.292480 251.415298,280.937927 
	C252.185898,277.700806 251.186996,276.289581 247.749939,276.324982 
	C241.435425,276.390015 235.118591,276.228424 227.887390,276.144012 
M75.431862,251.681686 
	C79.402824,251.364944 83.368492,250.917496 87.345757,250.756531 
	C98.244347,250.315414 98.246185,250.363068 100.900085,240.145126 
	C100.941818,239.984406 100.977333,239.818359 101.046494,239.669037 
	C102.215240,237.145203 100.885071,235.877167 98.676834,235.248550 
	C94.679390,234.110596 90.588600,233.471252 86.429901,233.289139 
	C76.506973,232.854538 66.479996,238.950485 62.161743,247.970108 
	C60.619862,251.190659 61.526096,252.820847 65.089096,252.628036 
	C68.234413,252.457855 71.365211,252.019455 75.431862,251.681686 
M74.667519,128.881775 
	C76.269012,124.913300 76.590919,120.462959 80.996346,117.743477 
	C82.780807,116.641914 82.463860,113.281464 80.612068,111.275612 
	C78.661499,111.490982 78.550812,113.863564 76.242683,113.669769 
	C73.807373,106.649971 77.741638,99.353897 76.537178,91.512482 
	C70.837952,94.243103 66.392311,97.379616 61.909382,100.487251 
	C59.720173,102.004860 58.973511,103.836884 59.245579,106.429420 
	C60.077168,114.353668 62.873825,121.573189 66.740471,128.457581 
	C68.827705,132.173782 71.227470,132.579407 74.667519,128.881775 
M111.010788,226.683014 
	C112.193871,225.782547 113.408447,224.920242 114.554375,223.974762 
	C118.682198,220.568970 118.488747,218.992996 113.701073,216.701218 
	C109.349922,214.618393 98.670250,217.560242 96.248787,221.489685 
	C95.395363,222.874588 95.451782,224.274506 97.043320,224.721054 
	C101.392227,225.941269 105.538063,228.531128 111.010788,226.683014 
M112.166481,109.528503 
	C108.642220,121.491943 110.078278,133.295364 113.196404,145.050354 
	C113.824081,142.322845 114.237442,139.554184 113.279373,136.897766 
	C110.598152,129.463593 111.214958,121.876869 112.114227,114.292145 
	C112.933792,107.379692 115.146744,100.806152 117.588425,94.284325 
	C116.526268,95.658157 115.717072,97.113609 115.223763,98.669228 
	C114.171150,101.988602 113.282288,105.359894 112.166481,109.528503 
z"/>
<path fill="#000000" opacity="1.000000" stroke="none" 
	d="
M102.375702,91.474792 
	C104.417526,89.524033 104.146912,86.074883 108.036446,85.234100 
	C107.435562,90.624428 103.048149,93.665665 102.435249,99.607185 
	C99.833359,95.909966 101.019180,93.829147 102.375702,91.474792 
z"/>
<path fill="#000000" opacity="1.000000" stroke="none" 
	d="
M205.963348,322.420074 
	C207.417114,319.330811 208.269287,319.253387 212.410400,321.734680 
	C210.603073,324.139587 208.378433,323.051666 205.963348,322.420074 
z"/>
<path fill="#000000" opacity="1.000000" stroke="none" 
	d="
M62.646210,155.105927 
	C63.822147,157.036499 63.488144,158.117935 61.425934,157.407333 
	C59.439342,156.722809 57.616592,155.546494 56.905346,153.198196 
	C59.607594,151.846191 60.787540,154.018509 62.646210,155.105927 
z"/>
<path fill="#000000" opacity="1.000000" stroke="none" 
	d="
M118.176651,182.646515 
	C122.110878,181.800781 123.621063,183.763855 124.040649,187.635391 
	C120.556526,187.410126 119.205208,185.332458 118.176651,182.646515 
z"/>
<path fill="#000000" opacity="1.000000" stroke="none" 
	d="
M317.075775,254.058899 
	C318.845917,254.126984 320.504608,253.612274 321.209625,255.809998 
	C319.061646,257.571259 316.867493,257.411072 314.563690,256.282166 
	C314.290619,254.323257 315.665161,254.386520 317.075775,254.058899 
z"/>
<path fill="#000000" opacity="1.000000" stroke="none" 
	d="
M72.958908,70.591934 
	C72.398415,74.525589 69.422340,73.976479 66.118851,75.246590 
	C67.654144,71.089478 70.101303,70.554871 72.958908,70.591934 
z"/>
<path fill="#000000" opacity="1.000000" stroke="none" 
	d="
M67.016281,294.849487 
	C68.204659,296.352661 68.071472,297.549438 66.332954,297.288574 
	C64.111771,296.955261 61.877911,296.163727 60.765457,293.422699 
	C63.360073,291.904480 64.935387,293.916992 67.016281,294.849487 
z"/>
<path fill="#000000" opacity="1.000000" stroke="none" 
	d="
M77.075531,214.389984 
	C75.697067,217.006607 73.419846,217.578995 70.696312,217.316330 
	C71.952919,214.772308 73.613365,212.945694 77.075531,214.389984 
z"/>
<path fill="#000000" opacity="1.000000" stroke="none" 
	d="
M51.174507,233.379807 
	C49.899834,234.509338 49.233139,236.145813 47.069256,235.333099 
	C46.994419,232.314636 49.190960,231.012421 51.182259,229.518570 
	C53.453262,230.782303 52.279888,231.962540 51.174507,233.379807 
z"/>
<path fill="#000000" opacity="1.000000" stroke="none" 
	d="
M187.812408,257.627747 
	C185.357498,258.154968 183.209244,258.479462 181.423859,256.694672 
	C184.697174,254.496231 186.837784,254.747086 187.812408,257.627747 
z"/>
<path fill="#000000" opacity="1.000000" stroke="none" 
	d="
M255.521332,257.357605 
	C257.878571,255.943649 260.020355,255.797134 263.165894,258.097717 
	C259.887543,259.305511 257.689758,260.179504 255.521332,257.357605 
z"/>
<path fill="#000000" opacity="1.000000" stroke="none" 
	d="
M44.648972,276.929932 
	C43.452839,274.854156 41.955795,273.135010 42.887959,270.750305 
	C46.915375,273.129425 47.573372,275.318726 44.648972,276.929932 
z"/>
<path fill="#000000" opacity="1.000000" stroke="none" 
	d="
M268.587402,322.930847 
	C266.796631,322.910645 265.230225,323.223206 264.349213,321.335236 
	C266.658844,319.531799 268.892029,319.375977 271.216309,321.112122 
	C270.927704,322.640564 269.889893,322.694580 268.587402,322.930847 
z"/>
<path fill="#000000" opacity="1.000000" stroke="none" 
	d="
M169.683502,37.800232 
	C170.975739,34.224361 173.458130,34.585571 176.772324,35.833012 
	C174.745285,38.525120 172.397522,38.335266 169.683502,37.800232 
z"/>
<path fill="#000000" opacity="1.000000" stroke="none" 
	d="
M213.169647,39.322601 
	C216.103500,38.969460 218.294632,39.928726 219.814362,42.372356 
	C216.915283,42.995804 214.211960,43.167572 213.169647,39.322601 
z"/>
<path fill="#000000" opacity="1.000000" stroke="none" 
	d="
M232.844116,48.222408 
	C229.389206,50.977276 227.993179,48.198425 225.846527,45.674557 
	C229.104935,44.765114 230.859665,46.465363 232.844116,48.222408 
z"/>
<path fill="#000000" opacity="1.000000" stroke="none" 
	d="
M244.141357,55.768574 
	C245.410751,57.775570 244.827377,58.845009 242.945404,58.049095 
	C241.086853,57.263107 238.945511,56.252850 238.790009,53.347317 
	C241.184052,52.628365 242.393204,54.471302 244.141357,55.768574 
z"/>
<path fill="#000000" opacity="1.000000" stroke="none" 
	d="
M253.123932,64.924591 
	C253.964859,66.394501 255.628113,67.247383 254.479736,69.245514 
	C251.116745,68.841347 250.720779,65.972664 249.248306,63.912006 
	C251.338852,62.373211 252.017563,63.835075 253.123932,64.924591 
z"/>
<path fill="#000000" opacity="1.000000" stroke="none" 
	d="
M58.978928,222.669556 
	C60.626617,221.817886 61.664307,220.104202 63.848953,221.118240 
	C63.944637,224.048325 61.476761,225.069748 59.569466,225.419724 
	C56.756386,225.935898 57.633068,224.203705 58.978928,222.669556 
z"/>
<path fill="#000000" opacity="1.000000" stroke="none" 
	d="
M118.937302,65.481094 
	C119.011780,62.363022 120.700333,60.690029 123.728912,59.303955 
	C123.844421,63.127377 122.291916,64.993065 118.937302,65.481094 
z"/>
<path fill="#000000" opacity="1.000000" stroke="none" 
	d="
M318.686707,279.300781 
	C315.246979,276.002319 318.517181,274.711182 320.513702,272.257294 
	C321.686523,275.465820 320.392426,277.328918 318.686707,279.300781 
z"/>
<path fill="#000000" opacity="1.000000" stroke="none" 
	d="
M191.658798,319.273468 
	C193.929016,319.228180 195.888565,319.172272 197.635010,320.763855 
	C196.031845,323.171783 193.919113,322.150421 192.042480,321.667023 
	C190.961990,321.388672 189.673767,320.735809 191.658798,319.273468 
z"/>
<path fill="#000000" opacity="1.000000" stroke="none" 
	d="
M310.936462,319.898254 
	C308.420776,319.911530 307.338745,319.173553 309.676666,317.641113 
	C311.222961,316.627594 313.105835,315.765533 315.379395,316.687958 
	C315.267151,319.490265 312.867767,319.140076 310.936462,319.898254 
z"/>
<path fill="#000000" opacity="1.000000" stroke="none" 
	d="
M74.815041,299.593689 
	C77.484283,299.418152 79.840187,299.609314 81.030373,302.494141 
	C78.545082,302.522827 75.745850,303.495911 74.815041,299.593689 
z"/>
<path fill="#000000" opacity="1.000000" stroke="none" 
	d="
M132.463516,54.413605 
	C131.269424,55.331837 130.347717,56.025570 128.923447,55.107182 
	C129.685608,51.967045 131.694199,50.710762 134.609390,50.352703 
	C135.507141,52.720074 133.599136,53.151451 132.463516,54.413605 
z"/>
<path fill="#000000" opacity="1.000000" stroke="none" 
	d="
M51.818748,287.223907 
	C50.888119,286.102661 49.876171,285.369995 50.260265,284.021637 
	C53.618305,284.480713 53.618305,284.480713 55.690208,288.144714 
	C54.121601,289.845184 53.176598,288.167725 51.818748,287.223907 
z"/>
<path fill="#000000" opacity="1.000000" stroke="none" 
	d="
M110.717041,63.642090 
	C111.470406,66.306709 110.744957,68.331764 109.407516,70.353561 
	C106.940704,67.008774 107.188896,65.609550 110.717041,63.642090 
z"/>
<path fill="#000000" opacity="1.000000" stroke="none" 
	d="
M81.439194,68.949966 
	C81.465813,65.877693 82.518639,65.339783 87.565346,65.705719 
	C86.754410,68.915749 83.866676,68.298424 81.439194,68.949966 
z"/>
<path fill="#000000" opacity="1.000000" stroke="none" 
	d="
M115.237640,72.492363 
	C115.254662,75.312599 114.585739,77.549538 111.325020,78.723030 
	C111.270996,75.455154 111.714401,73.066765 115.237640,72.492363 
z"/>
<path fill="#000000" opacity="1.000000" stroke="none" 
	d="
M323.521027,265.388550 
	C323.422302,262.567505 324.222748,260.430603 327.183044,259.496674 
	C327.007965,262.020874 327.391541,264.792542 323.521027,265.388550 
z"/>
<path fill="#000000" opacity="1.000000" stroke="none" 
	d="
M46.159973,86.446587 
	C47.720810,86.052399 48.478745,86.469566 48.030750,87.843468 
	C47.502060,89.464821 45.534187,90.511017 42.380276,90.993843 
	C42.292881,88.464851 44.557594,87.888870 46.159973,86.446587 
z"/>
<path fill="#000000" opacity="1.000000" stroke="none" 
	d="
M279.434265,142.001328 
	C281.112946,143.680634 283.110657,144.843033 283.193085,147.310989 
	C279.043488,146.867004 277.616882,144.928848 279.434265,142.001328 
z"/>
<path fill="#000000" opacity="1.000000" stroke="none" 
	d="
M111.681152,198.039642 
	C113.780182,197.483231 115.443039,195.746460 117.773933,197.358170 
	C116.734688,200.214661 114.230339,200.381317 111.897171,200.327011 
	C110.429459,200.292847 110.727814,199.121246 111.681152,198.039642 
z"/>
<path fill="#000000" opacity="1.000000" stroke="none" 
	d="
M260.705719,198.681091 
	C260.082428,202.855545 256.823395,200.650223 254.811981,201.662308 
	C255.678772,198.485413 257.979675,198.264267 260.705719,198.681091 
z"/>
<path fill="#000000" opacity="1.000000" stroke="none" 
	d="
M40.512634,245.553375 
	C41.197922,243.955856 41.113060,242.205887 43.352196,241.790619 
	C44.436108,244.583572 43.312061,246.659729 41.684452,248.626663 
	C39.779507,248.200485 40.058529,247.056992 40.512634,245.553375 
z"/>
<path fill="#000000" opacity="1.000000" stroke="none" 
	d="
M87.559479,210.468262 
	C86.112396,211.062698 84.968887,212.076736 83.568657,210.417328 
	C84.900330,207.930252 87.053185,207.057007 89.787720,207.005905 
	C90.808014,209.283646 88.936867,209.560471 87.559479,210.468262 
z"/>
<path fill="#000000" opacity="1.000000" stroke="none" 
	d="
M197.333191,70.876427 
	C202.606186,81.718536 200.277023,93.955833 191.733917,101.772346 
	C188.272232,104.939613 184.237305,105.176369 180.379074,102.438606 
	C173.210098,97.351578 168.562714,83.727325 171.389664,75.459885 
	C174.712692,65.741638 186.560394,59.290379 197.333191,70.876427 
z"/>
<path fill="#000000" opacity="1.000000" stroke="none" 
	d="
M132.150162,114.574684 
	C128.597702,108.027077 128.954666,100.773979 132.805878,96.609039 
	C137.851883,91.151978 144.311722,89.855789 151.385971,93.274948 
	C158.384674,96.657600 163.427017,102.051529 166.182861,109.373306 
	C168.431534,115.347633 166.269333,119.733002 160.199860,121.985962 
	C151.233917,125.314079 139.004303,122.198494 132.150162,114.574684 
z"/>
<path fill="#000000" opacity="1.000000" stroke="none" 
	d="
M196.155457,124.574020 
	C196.763763,130.107849 196.076675,134.682907 190.866928,137.305817 
	C184.743896,140.388535 178.698334,138.473190 175.663223,132.471649 
	C172.776459,126.763443 175.075363,119.767197 180.662552,117.257195 
	C186.601227,114.589294 193.010574,117.455811 196.155457,124.574020 
z"/>
</svg>